<svg xmlns="http://www.w3.org/2000/svg" xmlns:xlink="http://www.w3.org/1999/xlink" viewBox="0 0 140 80"><defs><linearGradient id="linear-gradient" x1="90.36" y1="32.52" x2="119.63" y2="32.52" gradientUnits="userSpaceOnUse"><stop offset="0.01" stop-color="#5ea2dd"/><stop offset="0.36" stop-color="#5899d5"/><stop offset="0.94" stop-color="#4980bf"/><stop offset="1" stop-color="#477dbd"/></linearGradient></defs><title>Ресурс 30</title><g id="Слой_2" data-name="Слой 2"><g id="Контент"><rect width="140" height="80" rx="2" ry="2" style="fill:#fff"/><path d="M75.63,29.75,69.36,43.34h-.64V26.79H59.82v28h7.56a5.09,5.09,0,0,0,4.62-3l6.27-13.59h.64V54.79h8.91v-28H80.26a5.09,5.09,0,0,0-4.62,3" style="fill:#63a554"/><path d="M42.21,30.47,38.5,43.34h-.64L34.15,30.47a5.09,5.09,0,0,0-4.89-3.68h-8.9v28h8.91V38.25h.64L35,54.79h6.36l5.09-16.55h.64V54.79H56v-28H47.1a5.09,5.09,0,0,0-4.89,3.68" style="fill:#63a554"/><path d="M91.64,39.52V54.79h8.89V45.88h9.56a9.54,9.54,0,0,0,9-6.36Z" style="fill:#63a554"/><path d="M110.09,26.79H90.36a14,14,0,0,0,13.76,11.45h15.32a9.7,9.7,0,0,0,.19-1.91,9.55,9.55,0,0,0-9.54-9.54" style="fill:url(#linear-gradient)"/></g></g></svg>