<svg xmlns="http://www.w3.org/2000/svg" xmlns:xlink="http://www.w3.org/1999/xlink" viewBox="0 0 140 80"><defs><linearGradient id="Blue_Gradient_2" x1="26.65" y1="40.8" x2="113.35" y2="40.8" gradientUnits="userSpaceOnUse"><stop offset="0" stop-color="#27235b"/><stop offset="1" stop-color="#2c4e9a"/></linearGradient></defs><title>Ресурс 28</title><g id="Слой_2" data-name="Слой 2"><g id="Контент"><rect width="140" height="80" rx="2" ry="2" style="fill:#fff"/><path d="M59.57,27.29,48.22,54.37H40.81L35.23,32.76a3,3,0,0,0-1.66-2.38,29.3,29.3,0,0,0-6.91-2.3l.17-.79H38.74A3.26,3.26,0,0,1,42,30.05l3,15.67,7.29-18.43Zm29,18.24c0-7.15-9.88-7.54-9.81-10.73,0-1,.95-2,3-2.27a13.23,13.23,0,0,1,6.91,1.21L89.88,28a18.82,18.82,0,0,0-6.55-1.2c-6.92,0-11.8,3.68-11.84,9,0,3.9,3.48,6.07,6.13,7.37s3.64,2.18,3.63,3.37c0,1.82-2.18,2.62-4.19,2.65a14.65,14.65,0,0,1-7.2-1.71L68.6,53.36a21.21,21.21,0,0,0,7.79,1.44c7.36,0,12.17-3.63,12.2-9.27m18.29,8.84h6.48l-5.66-27.08h-6a3.19,3.19,0,0,0-3,2L88.22,54.37h7.35l1.46-4h9Zm-7.82-9.6,3.69-10.17,2.12,10.17ZM69.58,27.29,63.78,54.37h-7l5.8-27.08Z" style="fill:url(#Blue_Gradient_2)"/></g></g></svg>